<svg id="Flat" height="512" viewBox="0 0 512 512" width="512" xmlns="http://www.w3.org/2000/svg"><path d="m24 424h464v64h-464z" fill="#dadcde"/><path d="m285.353 296c-12.5-12.5-2.366-42.889 22.627-67.882s55.385-35.124 67.882-22.627z" fill="#35a872"/><path d="m328 376c-45.679 0-85.171 19.575-104 48h208c-18.829-28.425-58.321-48-104-48z" fill="#757c80"/><path d="m414.623 424a275.677 275.677 0 0 0 9.377-72c0-45.024-10.448-86.574-28.08-120h-35.92c20.234 30.492 32.788 72.991 32.788 120a244.9 244.9 0 0 1 -10.512 72z" fill="#ad6643"/><path d="m360 424h-336v64h336c35.346 0 64-14.327 64-32s-28.654-32-64-32" fill="#3397e8"/><path d="m336 456h-64a8 8 0 0 1 0-16h64a8 8 0 0 1 0 16z" fill="#a3d4f7"/><path d="m96 456h-64a8 8 0 0 1 0-16h64a8 8 0 0 1 0 16z" fill="#a3d4f7"/><path d="m264 488h-32a8 8 0 0 1 0-16h32a8 8 0 0 1 0 16z" fill="#a3d4f7"/><path d="m184 488h-112a8 8 0 0 1 0-16h112a8 8 0 0 1 0 16z" fill="#a3d4f7"/><path d="m168 288a8 8 0 0 1 -8-8 8 8 0 0 0 -16 0 8 8 0 0 1 -16 0 8 8 0 0 0 -16 0 8 8 0 0 1 -16 0 23.988 23.988 0 0 1 40-17.874 23.988 23.988 0 0 1 40 17.874 8 8 0 0 1 -8 8z" fill="#7e8589"/><path d="m104 336a8 8 0 0 1 -8-8 8 8 0 0 0 -16 0 8 8 0 0 1 -16 0 8 8 0 0 0 -16 0 8 8 0 0 1 -16 0 23.988 23.988 0 0 1 40-17.874 23.988 23.988 0 0 1 40 17.874 8 8 0 0 1 -8 8z" fill="#7e8589"/><path d="m360 232c0-17.673 28.654-32 64-32s64 14.327 64 32z" fill="#3dc285"/><path d="m360 232c-17.673 0-32-28.654-32-64s14.327-64 32-64z" fill="#35a872"/><path d="m357.491 231.862c-12.5-12.5-2.367-42.889 22.627-67.882s55.382-35.124 67.882-22.627z" fill="#38b37a"/><path d="m232 232c0-17.673 28.654-32 64-32s64 14.327 64 32z" fill="#3dc285"/><circle cx="352" cy="248" fill="#cfdb8c" r="16"/><circle cx="384" cy="248" fill="#b1bd70" r="16"/><path d="m224 456h-80a8 8 0 0 1 0-16h80a8 8 0 0 1 0 16z" fill="#a3d4f7"/><path d="m392 352c-42.165 0-78.62 29.362-96 72h192c-17.38-42.638-53.835-72-96-72z" fill="#7e8589"/><circle cx="144" cy="112" fill="#ffd33a" r="32"/><g fill="#f7b030"><path d="m144 56a8 8 0 0 1 -8-8v-16a8 8 0 0 1 16 0v16a8 8 0 0 1 -8 8z"/><path d="m224 120h-16a8 8 0 0 1 0-16h16a8 8 0 0 1 0 16z"/><path d="m144 200a8 8 0 0 1 -8-8v-16a8 8 0 0 1 16 0v16a8 8 0 0 1 -8 8z"/><path d="m80 120h-16a8 8 0 0 1 0-16h16a8 8 0 0 1 0 16z"/><path d="m98.745 74.745a7.976 7.976 0 0 1 -5.657-2.345l-11.313-11.312a8 8 0 0 1 11.313-11.313l11.312 11.313a8 8 0 0 1 -5.657 13.657z"/><path d="m189.255 74.745a8 8 0 0 1 -5.655-13.657l11.314-11.313a8 8 0 0 1 11.313 11.313l-11.315 11.312a7.976 7.976 0 0 1 -5.657 2.345z"/><path d="m200.568 176.568a7.974 7.974 0 0 1 -5.656-2.343l-11.312-11.313a8 8 0 1 1 11.312-11.312l11.313 11.314a8 8 0 0 1 -5.657 13.656z"/><path d="m87.432 176.568a8 8 0 0 1 -5.657-13.656l11.313-11.312a8 8 0 1 1 11.312 11.312l-11.312 11.313a7.974 7.974 0 0 1 -5.656 2.343z"/></g></svg>